<?xml version="1.0" standalone="no"?><!DOCTYPE svg PUBLIC "-//W3C//DTD SVG 1.1//EN" "http://www.w3.org/Graphics/SVG/1.1/DTD/svg11.dtd"><svg class="icon" width="200px" height="200.00px" viewBox="0 0 1024 1024" version="1.1" xmlns="http://www.w3.org/2000/svg"><path d="M927.221333 346.954667c2.517333-2.08 4.810667-4.469333 7.2-6.72l-1.216-1.76c-5.802667 3.936-13.098667 3.765333-18.933333 7.989333-4.021333 2.933333-8.437333 5.856-13.130667 7.178667-5.013333 1.418667-9.184 6.656-15.232 3.914666-8.736 4.298667-17.472 8.618667-26.208 12.906667-0.746667 0.362667-1.578667 0.842667-2.357333 0.832-8.021333-0.085333-14.218667 4.864-21.12 7.744-9.130667 3.786667-17.952 8.309333-26.912 12.48-2.24 1.034667-4.533333 1.962667-7.882667 3.392l-1.290666-0.554667c-1.706667 1.589333-2.773333 3.242667-4.213334 3.765334-5.12 1.813333-10.485333 2.922667-15.530666 4.885333-5.461333 2.112-11.413333 2.666667-16.202667 7.018667-3.434667 3.125333-8.181333 5.664-12.693333 6.464-3.328 0.565333-4.341333 3.36-7.04 4.064-3.509333 0.928-6.912 2.186667-10.986667 3.509333l-9.226667 0.544c-7.754667 11.381333-21.888 8.192-31.786666 15.584-0.309333-2.08-0.458667-3.029333-0.597334-4.106667-1.493333 2.666667-2.741333 4.938667-3.594666 6.496-8.085333 0.458667-16.48 2.346667-20.021334 7.370667-3.616 5.141333-2.336 13.696-3.2 20.832-2.613333-1.28-7.018667-2.048-8.704-4.597333-2.410667-3.669333-4.053333-8.704-3.84-13.034667 0.48-9.642667-3.968-17.898667-6.325333-26.666667-1.408-5.237333-3.402667-10.282667-3.850667-15.765333-0.085333-0.778667-1.258667-1.450667-1.493333-1.696-0.426667-4.64-0.394667-9.066667-1.312-13.301333-1.216-5.589333-3.114667-11.050667-4.842667-16.533334-1.194667-3.797333-1.738667-8.224-4.117333-11.125333-3.392-4.181333-2.901333-9.397333-4.48-13.856-1.12-3.114667-1.696-6.474667-3.690667-9.621333-1.578667-2.485333-1.856-5.824-2.858666-9.28-3.061333-0.149333-2.218667-3.274667-1.962667-5.930667 0.085333-0.906667 1.28-1.930667 1.066667-2.602667a640.810667 640.810667 0 0 0-6.784-20.032c-2.24-6.261333-3.594667-12.608-2.602667-19.626666-0.533333-0.32-2.08-0.693333-2.293333-1.461334a513.6 513.6 0 0 1-5.226667-19.690666c-0.309333-1.226667-0.053333-2.602667-0.053333-4.533334 0.064 0.032-1.344-0.416-2.133334-1.376-3.754667-4.586667-1.514667-10.794667-4.821333-16.064-3.285333-5.258667-3.616-12.341333-5.429333-18.56a517.76 517.76 0 0 0-5.578667-17.6c-2.549333-7.690667-2.730667-15.84-6.592-23.456-3.349333-6.570667-3.178667-14.858667-5.269333-22.176-1.546667-5.418667-4.416-10.453333-6.336-15.797333-0.8-2.197333-0.629333-4.736-0.981334-7.893333-5.525333-3.274667-0.938667-10.826667-3.648-15.850667l-6.133333 8.458667a9.013333 9.013333 0 0 1-0.373333 6.197333c-2.752 6.666667-5.76 13.216-6.069334 20.629333-0.053333 1.269333-0.928 2.517333-1.44 3.754667-1.845333 4.544-3.818667 9.034667-5.525333 13.610667-1.685333 4.544-3.146667 9.173333-4.64 13.770666-1.482667 4.533333-2.805333 9.098667-4.330667 13.610667-1.898667 5.728-3.925333 11.413333-5.952 17.098667-0.736 2.037333-2.592 4.256-2.197333 5.962666 1.749333 7.434667-2.378667 13.504-4.341333 19.925334-1.28 4.064-3.242667 7.776-4.288 12.170666-1.92 7.946667-6.208 15.306667-5.536 23.914667a1.909333 1.909333 0 0 1-0.597334 1.408c-7.754667 6.016-5.973333 15.829333-9.344 23.584-3.658667 8.416-3.52 18.026667-9.354666 25.984-3.306667 4.501333-5.013333 10.805333-5.632 16.490667-0.917333 8.522667-2.88 16.149333-8.501334 21.184 0.981333 3.285333 2.848 6.090667 2.208 8.085333a130.282667 130.282667 0 0 1-8.085333 19.978667c-4.458667 8.650667-8.096 17.258667-6.570667 27.04l5.888 0.501333-1.92 8.874667 3.957334-2.762667 0.298666 0.448-12.64 8 2.133334 3.114667c1.28-0.778667 2.432-1.258667 3.253333-2.058667 0.853333-0.842667 1.408-2.005333 2.698667-3.925333-2.24 10.410667-3.669333 11.850667-11.925334 13.237333-0.789333 0.138667-1.514667 1.130667-2.090666 1.877333-4.096 5.205333-6.261333 12.426667-14.325334 13.44-3.754667 0.469333-7.594667 1.749333-11.242666 1.386667-2.581333-0.245333-4.928-2.656-7.498667-4.170667l0.490667-4.288c-5.888-6.176-14.176-4.896-21.312-7.125333-0.704-0.224-1.386667-0.8-2.069334-0.757333-4.586667 0.330667-9.312 1.685333-13.706666 0.981333-4.96-0.810667-9.386667-0.853333-14.037334 1.056-3.808 1.557333-8.053333-0.394667-9.12-3.328-0.992 0.693333-2.101333 2.090667-3.210666 2.069333a420.725333 420.725333 0 0 1-21.066667-0.778666c-7.573333-0.448-14.890667-3.317333-22.794667-0.064-3.52 1.450667-8.373333-0.341333-12.618666-0.693334a12.896 12.896 0 0 1-2.176-0.437333c-1.386667-0.373333-2.741333-0.8-3.466667-1.024-4.202667 0.394667-8.213333 0.938667-12.224 1.12-3.786667 0.170667-7.573333-0.085333-11.36-0.021333-2.581333 0.032-5.248 0.768-7.754667 0.384-18.208-2.794667-36.373333-5.866667-54.570666-8.672-6.208-0.938667-12.48-1.461333-18.730667-1.994667-6.357333-0.533333-12.778667-0.736-19.157333-1.28-4.266667-0.373333-8.64-0.618667-12.757334-1.717333-12.096-3.242667-24.394667-5.216-36.8-6.784-3.2-0.405333-6.346667-1.312-9.525333-1.994667-3.914667 0.629333-8.565333 2.485333-12.554667 1.546667-2.016-0.458667-2.229333-0.021333-3.552 1.12 2.848 1.866667 5.664 3.52 8.277334 5.461333 4.149333 3.050667 7.936 6.613333 12.256 9.354667 3.754667 2.378667 8.181333 3.658667 12.064 5.856 4.842667 2.72 9.418667 5.92 14.133333 8.842666 5.888 3.648 12.053333 6.901333 17.621333 10.986667 2.421333 1.781333 7.178667-0.917333 7.594667 4.149333 8.746667-0.042667 12.352 8.597333 19.573333 11.488 12.085333 4.821333 19.626667 16.384 31.818667 21.813334 9.514667 4.224 17.514667 11.797333 26.261333 17.770666 7.402667 5.045333 14.912 9.930667 22.4 14.837334 1.706667 1.12 3.584 1.962667 5.290667 3.093333 6.005333 3.946667 11.285333 8.864 18.304 11.370667 4.245333 1.525333 8.053333 4.352 11.989333 6.677333 2.08 1.226667 1.045333 5.258667 4.650667 5.216 1.514667-0.021333 3.253333-0.330667 4.48 0.298667 7.584 3.861333 15.114667 7.861333 22.538667 12.042666 1.738667 0.981333 4.149333 4.245333 4.309333 4.106667 3.178667-2.624 3.445333 0.906667 4.864 2.037333 2.72 2.154667 5.376 4.490667 8.394667 6.101334 2.944 1.589333 6.485333 2.069333 9.504 3.584 5.706667 2.837333 10.976 6.634667 16.853333 8.949333 7.552 2.976 15.690667 4.437333 23.232 7.445333 3.253333 1.301333 5.653333 4.832 8.32 7.477334 0.458667 0.458667 0.437333 1.536 0.405333 2.325333-0.064 2.24-1.088 4.896-0.234666 6.645333 2.08 4.213333-0.213333 6.261333-2.922667 8.501334a4.48 4.48 0 0 0-1.12 1.6l-7.050667 16.981333c-0.32 0.789333-0.565333 1.738667-1.152 2.261333-5.738667 5.002667-7.232 12.277333-10.069333 18.805334-1.749333 4.074667-3.2 8.32-4.48 12.586666-0.928 3.114667-0.736 6.698667-2.122667 9.546667-4.693333 9.685333-9.888 19.125333-14.784 28.714667-0.213333 0.426667 0.714667 1.44 0.992 1.952-1.482667 1.258667-3.978667 2.389333-4.021333 3.594666-0.213333 7.744-5.536 13.802667-6.378667 21.546667-0.608 5.728-4.266667 11.488-7.648 16.501333-5.386667 7.936-8.672 16.629333-11.648 25.568-0.8 2.346667-2.666667 4.597333-2.698666 6.912-0.085333 6.954667-3.594667 12.48-6.378667 18.432-3.072 6.549333-5.546667 13.397333-8.213333 20.117334-2.026667 5.12-4.042667 10.24-5.92 15.413333-2.176 5.962667-3.626667 12.373333-9.525334 14.922667 0.245333 1.792 1.109333 3.605333 0.618667 4.917333a416.181333 416.181333 0 0 1-8.746667 21.450667c-1.514667 3.381333-3.008 7.104-5.578666 9.568-2.346667 2.282667-2.549333 3.84-1.088 7.178666 5.674667-5.738667 10.88-10.976 16.32-16.490666l16.426666-9.12-0.992-2.005334c3.338667-2.016 9.312-4.309333 9.109334-5.749333-0.778667-5.813333 4.362667-5.930667 6.602666-8.522667 2.144-2.464 5.514667-3.84 8-6.069333 2.645333-2.378667 3.562667-6.144 7.914667-7.392 2.922667-0.842667 5.013333-4.394667 7.573333-6.645333 3.392-2.986667 6.453333-7.157333 10.421334-8.362667 2.890667-0.874667 4.437333-2.314667 6.208-4.064 3.093333-3.04 6.08-6.144 9.248-9.333333-1.386667-1.984-1.226667-3.850667 1.610666-5.312 1.834667-0.938667 4.501333-0.501333 6.101334-1.664 4.266667-3.168 8.309333-6.709333 12.181333-10.357334 3.946667-3.701333 7.306667-7.989333 11.370667-11.52 5.013333-4.330667 10.506667-8.106667 15.754666-12.181333 3.914667-3.04 7.946667-5.973333 11.594667-9.290667 1.994667-1.802667 2.869333-5.365333 5.045333-6.325333 5.514667-2.442667 9.92-5.738667 12.885334-11.008 0.277333-0.48 1.152-0.586667 1.653333-0.981333 5.226667-4.234667 10.453333-8.533333 15.68-12.768 4.992-4.032 7.562667-10.730667 14.368-12.8 1.088-0.341333 1.845333-1.802667 2.730667-2.773334 1.258667-1.386667 2.517333-4.010667 3.733333-3.978666 5.802667 0.106667 7.424-4.725333 9.525333-8.117334 4.394667-7.125333 11.2-9.237333 18.549334-11.477333 0.181333-0.565333 0.277333-1.781333 0.896-2.666667 2.069333-3.072 4.533333-5.898667 6.421333-9.077333 4.458667-7.466667 8.746667-14.421333 19.605333-11.776 5.472 1.322667 11.413333 0.618667 17.024 1.450667 4.672 0.693333 8.8 7.178667 9.973334 11.114666 1.6 5.408-0.661333 12.330667 5.834666 16.064 2.101333 1.216 3.786667 3.157333 5.333334 4.512 1.6-0.16 3.338667-0.928 4.426666-0.384 6.037333 3.008 11.914667 6.336 17.834667 9.568 1.024 0.544 1.930667 1.354667 3.008 1.706667 5.76 1.802667 12.906667 1.930667 17.066667 5.536 10.4 9.024 23.818667 11.797333 35.008 18.997333 8.266667 5.312 17.674667 8.842667 26.666666 12.906667 4.906667 2.218667 10.048 3.925333 14.976 5.813333l-1.770666 7.072c2.848-0.48 5.898667-0.106667 7.349333-1.461333 3.04-2.837333 5.376-1.141333 7.722667 0.277333 2.922667 1.781333 5.376 4.458667 8.426666 5.973334 9.002667 4.469333 18.197333 8.533333 27.285334 12.810666 0.650667 0.298667 1.098667 1.461333 1.642666 1.461334 7.2 0.042667 11.221333 4.202667 13.888 10.709333 0.682667-1.728 1.237333-3.178667 1.930667-5.002667l8.746667 5.162667c9.632-0.202667 15.04 9.12 23.701333 11.370667 2.282667 0.586667 3.989333 3.381333 5.44 4.704 1.034667-0.085333 2.048-0.490667 2.592-0.149334 1.578667 1.013333 2.816 3.018667 4.437333 3.370667 2.72 0.565333 5.653333 0.149333 8.394667 0.149333-0.853333-1.749333-1.312-4.746667-2.88-5.536-3.925333-1.994667-4.597333-5.728-6.186667-8.992-2.112-4.266667-3.594667-8.885333-6.048-12.928-3.157333-5.205333-7.093333-9.930667-10.549333-14.965333-2.528-3.712-4.661333-7.690667-7.232-11.349333-3.008-4.234667-7.701333-7.818667-9.152-12.48-1.770667-5.664-4.96-9.738667-8.618667-13.888-2.005333-2.293333-4.202667-4.565333-5.653333-7.210667-4.202667-7.594667-7.2-16.010667-12.384-22.794667-2.752-3.594667-6.229333-6.229333-8.213333-10.912-3.136-7.338667-8.085333-13.898667-12.266667-20.8-1.792-2.965333-3.413333-6.048-5.397333-8.896-2.88-4.192-7.029333-7.818667-8.8-12.394666-2.933333-7.552-8.938667-12.821333-12.565334-19.722667-2.368-4.469333-6.826667-8.341333-4.128-14.282667l-1.216-0.586666c-0.618667 1.312-1.258667 2.613333-1.674666 3.52-2.154667-3.562667-4.650667-7.488-6.901334-11.552-1.098667-1.994667-1.44-4.469333-2.709333-6.336-3.413333-5.109333-7.2-9.973333-10.698667-15.029334-1.493333-2.154667-2.101333-5.76-4.010666-6.581333-4.693333-2.016-5.728-6.752-7.616-10.122667-1.6-2.816 0.309333-7.882667 1.44-11.733333 0.298667-1.034667 3.381333-1.28 4.501333-1.664 4.256-8.469333 11.904-12.394667 19.445333-15.808l3.882667 1.472-1.28-4.405333 55.957333-53.546667-0.618666 4.032h4.970666c-3.210667-2.506667-3.434667-6.784-0.704-9.781333 3.68-4.074667 7.456-8.074667 11.232-12.064 0.245333-0.277333 1.013333 0 1.333334-0.256 3.701333-2.922667 7.946667-5.408 10.901333-8.970667 5.066667-6.112 10.656-11.402667 17.322667-15.648 2.826667-1.802667 5.397333-4 8.032-6.090667 1.621333-1.301333 3.136-2.72 4.693333-4.096 1.653333-3.061333 3.402667-6.378667 5.92-8.896 5.578667-5.546667 11.626667-10.592 17.322667-16.010666 3.477333-3.317333 6.656-6.933333 10.005333-10.368 0.341333-0.32 1.002667-0.266667 1.44-0.522667 1.536-0.842667 4.138667-1.493333 4.394667-2.656 1.226667-5.632 6.165333-7.914667 10.005333-10.250667 7.936-4.8 14.026667-11.04 19.541333-18.304 2.837333-3.765333 6.773333-6.752 10.346667-9.941333 1.173333-1.034667 3.221333-1.237333 4.085333-2.421333 2.112-2.837333 3.168-6.645333 5.653334-8.981334 5.386667-5.013333 11.477333-9.290667 17.173333-13.994666z m63.061334-53.824c1.930667 3.829333 1.984 9.141333 1.386666 13.589333-1.098667 8.234667-3.2 16.352-5.045333 24.469333-0.853333 3.712-1.258667 7.946667-3.349333 10.858667-3.733333 5.184-8.682667 9.472-12.938667 14.272-9.130667 10.304-21.802667 16.629333-30.549333 27.392-2.933333 3.584-6.826667 6.005333-9.013334 10.677333-1.514667 3.285333-6.549333 4.938667-10.218666 7.456a182.165333 182.165333 0 0 1-0.693334-1.557333l-8.48 9.248c-0.746667 6.304-7.306667 10.186667-12.96 14.752-2.592 2.08-6.528 3.424-7.786666 6.08-4.202667 9.066667-14.037333 11.637333-19.925334 18.581333-2.24 2.613333-4.277333 5.386667-6.688 7.829334-3.008 3.072-6.464 5.717333-9.450666 8.810666-5.952 6.197333-11.626667 12.64-19.253334 17.002667-1.621333 0.917333-1.92 4.042667-3.509333 5.088-7.04 4.650667-11.413333 12.661333-19.733333 15.690667-0.661333 0.256-1.066667 1.269333-1.546667 1.952-4.213333 5.856-8.362667 11.733333-12.704 17.482666-0.469333 0.618667-2.346667 0.832-3.136 0.416-3.466667-1.877333-4.213333-0.341333-4.928 2.869334-0.341333 1.6-2.282667 2.954667-3.68 4.213333-2.208 1.984-6.165333 3.498667-6.581333 5.728-1.024 5.429333-5.514667 6.784-8.789334 9.546667-6.848 5.802667-14.058667 11.2-20.8 17.141333-3.957333 3.509333-7.125333 7.936-11.029333 11.541333-2.005333 1.845333-4.8 2.826667-7.818667 4.501334-0.106667 3.509333-1.205333 7.168-6.378666 6.901333 2.325333 4.736 4.138667 9.589333 6.901333 13.845333 2.688 4.138667 4.650667 9.269333 7.413333 12.490667 5.28 6.165333 9.034667 12.874667 13.44 19.413333 4.021333 5.984 6.528 12.917333 11.669334 18.464 5.866667 6.325333 9.685333 14.549333 14.368 21.962667 2.144 3.402667 4.394667 6.784 6.24 10.357333 0.885333 1.685333 5.28 2.922667 1.258666 5.749334 1.226667 1.088 2.997333 1.930667 3.637334 3.306666 3.136 6.837333 10.688 10.922667 11.658666 19.232 0.234667 1.962667 3.157333 3.509333 4.597334 5.44 3.221333 4.32 6.464 8.64 9.322666 13.194667 2.688 4.277333 4.693333 8.970667 7.381334 13.226667 2.026667 3.2 4.938667 5.834667 6.976 9.024 3.914667 6.112 7.338667 12.544 11.253333 18.645333 1.568 2.432 4.362667 4.085333 5.824 6.538667 2.752 4.629333 4.8 9.664 7.434667 14.368 1.813333 3.253333 4.053333 6.282667 6.229333 9.322666 3.669333 5.162667 7.541333 10.218667 11.168 15.413334 3.765333 5.344 7.413333 10.773333 10.965333 16.266666 2.709333 4.192 5.354667 8.448 7.722667 12.853334 1.493333 2.773333 2.197333 5.952 3.626667 8.746666 1.088 2.112 2.336 4.672 4.234666 5.696 4.437333 2.421333 8.330667 4.298667 11.285334 9.376 2.517333 4.309333 5.301333 8.341333 4.469333 12.885334-0.821333 4.362667-3.328 8.736-6.08 12.352-2.837333 3.712-7.36 5.44-12.234667 5.056a42.304 42.304 0 0 1-8.672-1.408 31.541333 31.541333 0 0 1-8.565333-3.690667c-1.706667-1.141333-2.634667-3.445333-4.32-5.781333-1.557333 4.565333-4.544 3.210667-7.605333 1.653333-5.162667-2.634667-10.346667-5.290667-15.573334-7.829333-4.853333-2.357333-9.994667-4.202667-14.602666-6.954667-4.586667-2.741333-8.629333-6.368-12.96-9.525333-0.490667-0.373333-1.322667-0.234667-1.952-0.458667-6.912-2.538667-14.165333-4.426667-20.618667-7.808-8.021333-4.181333-16.074667-8.096-24.586667-11.136-1.173333-0.416-1.813333-2.325333-2.485333-3.274667-1.92-0.138667-4.010667 0.288-5.461333-0.490666-4.277333-2.282667-8.32-5.045333-12.469334-7.605334a2.336 2.336 0 0 0-0.96-0.330666c-8-1.056-14.282667-5.365333-20.8-9.792-3.786667-2.581333-9.226667-2.656-13.824-4.138667-1.194667-0.394667-2.048-1.845333-2.773333-2.549333-2.229333-0.746667-4.437333-1.397333-6.592-2.218667-3.914667-1.514667-7.786667-3.125333-11.690667-4.682667-1.109333-0.448-2.773333-0.522667-3.253333-1.322666-3.477333-5.845333-10.773333-5.216-15.264-9.269334-1.12-1.013333-3.413333-1.376-3.776-2.474666-2.72-8.586667-10.389333-5.12-15.882667-7.018667-5.44-1.866667-11.2-3.84-15.68-7.274667-4.938667-3.797333-10.421333-5.664-15.893333-7.978666-4.149333-1.738667-7.968-4.202667-11.946667-6.346667-0.117333-0.074667-0.149333-0.352-0.288-0.405333l-22.165333-8.533334c-0.618667-0.234667-1.514667-0.384-1.76-0.842666-2.346667-4.458667-7.253333-4.234667-10.986667-6.165334-7.818667-4.053333-16.405333-7.082667-20.789333-15.861333-0.469333-0.970667-4.330667-1.557333-5.386667-0.736-5.952 4.650667-12.928 7.765333-17.546666 14.496-3.232 4.725333-6.944 9.866667-13.461334 11.872-3.242667 0.992-5.781333 4.309333-9.056 6.912-0.128 0.352-0.309333 2.250667-1.024 2.496-1.546667 0.501333-3.370667 0.149333-5.162666 0.149333-0.298667 5.269333-4.074667 9.482667-10.154667 9.973334-2.88 0.234667-2.912 2.421333-4.213333 4.192-3.786667 5.109333-8.661333 9.482667-13.482667 13.738666-4.832 4.245333-10.944 7.018667-14.613333 12.629334-0.181333 0.298667-0.234667 0.768-0.490667 0.896a23.893333 23.893333 0 0 0-8.661333 7.765333c-2.4 3.36-7.285333 4.896-10.912 7.466667-3.722667 2.624-7.594667 5.184-10.730667 8.437333-2.485333 2.581333-3.914667 6.186667-5.92 9.28-0.426667 0.661333-1.248 1.077333-1.92 1.568-1.898667 1.333333-4.426667 2.250667-5.546667 4.053333a13.856 13.856 0 0 1-7.733333 6.058667c-5.12 1.792-8.426667 6.058667-11.765333 10.325333-2.229333 2.826667-5.824 4.544-8.565334 7.04-2.922667 2.677333-5.610667 5.6-8.309333 8.522667-2.357333 2.592-3.968 6.005333-8.394667 5.973333-1.44-0.010667-2.986667 1.322667-4.32 2.293334a74.048 74.048 0 0 0-6.762666 5.482666c-2.666667 2.474667-4.992 5.344-7.722667 7.744-4.501333 3.978667-9.152 7.818667-13.92 11.466667-0.714667 0.565333-2.432-0.16-2.912-0.213333-3.456 3.509333-6.496 6.709333-9.653333 9.792-4.053333 3.968-8.192 7.850667-12.341334 11.722666-2.88 2.698667-5.653333 5.546667-8.8 7.925334-4.32 3.242667-7.264 7.712-11.04 11.413333-1.216 1.173333-3.381333 1.386667-4.266666 2.677333-1.653333 1.717333-3.157333 3.648-5.045334 5.066667-1.461333 1.109333-3.349333 1.696-5.12 2.314667-4.213333 1.504-7.285333 4.266667-9.674666 7.978666-0.309333 0.490667-1.386667 0.458667-2.101334 0.725334-9.365333 3.381333-17.109333 0.32-23.914666-6.144a14.112 14.112 0 0 1-2.698667-3.754667c-2.101333-4.170667-4.405333-8.298667-5.930667-12.682667-0.970667-2.762667-0.896-5.962667-0.938666-8.96-0.032-1.888 0.597333-3.776 0.928-5.664l1.450666-0.085333-2.197333-3.850667c1.706667 1.013333 2.773333 1.642667 2.88 1.685334l9.237333-22.410667 0.618667 0.448c0.224-1.344 0.341333-2.730667 0.704-4.032 1.408-4.970667 4.96-9.386667 6.122667-13.856 1.141333-4.490667 3.338667-5.877333 6.293333-7.754667-0.554667-0.554667-1.888-1.354667-1.770667-1.845333 1.088-4.917333 1.024-10.997333 3.968-14.410667 5.12-5.941333 5.152-13.802667 9.546667-19.733333 0.714667-0.992 1.621333-2.272 1.546667-3.370667-0.234667-3.498667 1.141333-5.546667 3.402666-6.005333 0.117333-2.602667-0.085333-4.853333 0.426667-6.933333 1.461333-5.877333 3.029333-11.733333 4.928-17.472 0.928-2.826667 3.04-5.269333 4.032-8.074667 1.706667-4.810667 5.152-8.266667 8.16-12.138667 1.877333-2.432 2.88-5.717333 3.648-8.778666 2.72-10.752 6.165333-21.141333 11.754667-30.816 1.792-3.093333 1.770667-7.349333 6.826666-7.850667-0.768-0.32-1.546667-0.661333-1.984-0.832 2.261333-6.570667 4.16-13.130667 6.752-19.413333 2.453333-5.92 5.642667-11.552 8.746667-17.824 0.341333-2.176 0.426667-5.333333 1.386667-8.192 1.28-3.818667 3.093333-7.456 4.981333-11.018667 0.565333-1.077333 2.56-1.397333 3.136-2.485333 0.704-1.365333 0.586667-3.157333 0.896-5.002667l1.770667 0.32h-0.021334c0.917333-4.32 1.493333-8.362667 2.666667-12.245333 0.789333-2.634667 2.709333-4.938667 3.488-7.573334 0.949333-3.232 1.376-6.346667 3.68-9.301333 1.952-2.464 1.813333-6.474667 3.082667-9.610667 0.746667-1.898667 2.410667-3.434667 4.405333-4.608 0.128-1.269333 0.448-2.538667 0.341333-3.786666-0.106667-1.301333-0.181333-3.082667-1.002666-3.754667a25.749333 25.749333 0 0 0-6.24-3.552c-5.216-2.208-10.634667-3.957333-15.733334-6.378667-3.242667-1.557333-7.146667-2.805333-7.562666-7.648-0.064-0.832-2.485333-1.568-3.893334-2.176-6.293333-2.794667-12.650667-5.386667-18.826666-8.373333-1.429333-0.682667-2.261333-2.624-2.602667-3.072-3.509333-1.098667-6.581333-1.717333-9.333333-3.029333a176.917333 176.917333 0 0 1-16.245334-8.554667c-7.68-4.736-14.752-10.634667-22.784-14.602667-4.266667-2.112-6.442667-6.773333-11.456-7.648-1.770667-0.309333-3.306667-2.229333-4.906666-3.456-3.445333-2.613333-6.730667-5.472-10.378667-7.776-1.866667-1.184-4.693333-0.896-6.506667-2.133333-2.144-1.472-5.578667-2.474667-4.864-6.4 0.021333-0.074667-2.581333-0.192-3.328-0.928-4.490667-4.448-12.032-5.461333-14.24-12.501333-0.128-0.384-0.778667-0.586667-1.536-1.141334-2.208 3.733333-4.373333 2.208-6.986666 0.213334-4.938667-3.744-10.56-6.72-15.125334-10.826667-6.144-5.514667-13.44-8.981333-20.288-13.269333-5.162667-3.264-10.154667-6.837333-15.381333-10.005334-2.816-1.706667-6.133333-2.624-8.96-4.352-4.138667-2.506667-8.021333-5.461333-12.053333-8.170666-6.752-4.533333-13.461333-9.109333-20.330667-13.504a555.658667 555.658667 0 0 0-21.408-13.152c-3.082667-1.781333-6.88-2.357333-9.834667-4.288-3.968-2.570667-7.392-5.962667-11.114666-8.917334-2.56-2.037333-5.290667-3.893333-7.882667-5.92-4.768-3.712-9.653333-7.317333-14.186667-11.306666-2.336-2.058667-4.245333-4.682667-5.973333-7.296-5.632-8.608-5.216-16.885333 1.493333-24.32 1.898667-2.101333 4.597333-3.850667 7.274667-4.789334a86.72 86.72 0 0 1 18.730667-4.373333l-2.325334 2.709333c0.746667 0.085333 1.248 0.288 1.386667 0.138667 4.181333-4.789333 10.026667-2.634667 15.093333-3.413333 5.269333-0.8 10.773333-1.216 16.042667-0.693334 8.864 0.874667 17.621333 2.773333 26.453333 3.957334 4.650667 0.629333 9.642667-0.170667 14.037334 1.162666 12.309333 3.733333 24.874667 4.298667 37.525333 4.874667 2.922667 0.138667 5.76 1.76 8.832 2.762667 1.386667-0.138667 3.413333-0.821333 5.226667-0.437334 5.930667 1.205333 11.754667 3.157333 17.76 4.106667 5.077333 0.810667 10.325333 0.544 15.498666 0.864 3.477333 0.224 7.488-1.493333 9.802667 1.344l11.594667 1.546667-0.288 1.002666c1.738667-0.394667 3.477333-1.109333 5.237333-1.141333a620.266667 620.266667 0 0 1 21.365333-0.010667c3.157333 0.042667 6.72-0.405333 9.365334 0.874667 6.784 3.285333 13.738667 2.282667 20.746666 2.4 6.826667 0.117333 13.653333 0.693333 20.458667 1.173333 6.229333 0.448 12.736 2.421333 18.634667 1.28 11.808-2.272 23.221333 1.429333 34.805333 0.586667 7.157333-0.512 14.293333-1.664 21.44-1.909333 5.333333-0.16 10.688 0.757333 16.053333 1.045333 4.736 0.256 9.493333 0.330667 14.229334 0.458667 4.906667 0.128 5.578667-2.709333 5.152-6.826667-0.213333-2.090667 0.597333-4.277333 0.938666-6.421333l1.653334-0.074667c-0.746667-1.322667-1.461333-2.645333-2.24-4.010667 6.261333-6.517333 7.648-14.997333 10.56-23.072 1.994667-5.589333 0.821333-13.728 7.626666-16.650666-0.106667-1.728-0.736-3.477333-0.256-4.832 2.922667-8.138667 7.893333-16.064 8.469334-24.309334 0.32-4.821333 0.949333-9.418667 2.474666-13.738666 2.229333-6.325333 5.408-12.309333 8.16-18.464 0.32-0.725333 0.928-1.802667 0.672-2.229334-3.488-5.354667 0.576-9.429333 2.272-13.856 2.688-7.04 7.861333-14.048 7.722667-20.981333-0.181333-9.610667 5.184-16.96 6.965333-25.610667 0.714667-3.552 3.328-7.701333 4.661334-11.744 0.672-1.994667 0.608-4.245333 1.386666-6.176 1.28-3.242667 2.986667-6.325333 4.629334-9.738666l-3.136-1.781334c3.008-4.138667 5.866667-7.904 8.533333-11.786666 0.810667-1.173333 1.173333-2.698667 1.546667-4.117334 1.493333-5.6 4.074667-11.221333 4.074666-16.832-0.032-6.304 4.586667-11.253333 3.52-17.813333-0.373333-2.293333 3.104-5.162667 4.672-7.861333a16 16 0 0 0 1.568-4.192c1.226667-5.12 2.069333-10.378667 3.658667-15.402667 0.896-2.869333 3.562667-5.226667 4.362667-8.117333 1.301333-4.672 1.557333-9.632 2.581333-14.4 0.928-4.298667 2.101333-8.554667 3.594667-12.672 0.533333-1.44 2.346667-2.410667 3.786666-3.776-4.128-9.088 0.576-17.589333 5.088-25.866667 1.450667-2.656 4.704-4.309333 7.008-6.549333 0.362667-0.352 0.053333-1.386667 0.053334-2.282667 1.888-0.053333 5.696 2.88 6.048-2.570667 2.976 0.362667 6.026667 0.384 8.864 1.162667 7.690667 2.122667 15.434667 4.746667 19.701333 12.085333 3.541333 6.069333 8.053333 11.509333 8.544 19.477334 0.426667 6.602667 4.362667 12.938667 6.250667 19.530666 1.738667 6.154667 2.837333 12.490667 4.234666 18.741334 0.341333 1.589333 0.736 3.189333 1.024 4.789333 0.597333 3.114667 0.96 6.293333 1.802667 9.344 0.48 1.781333 1.674667 3.381333 2.645333 5.013333 0.565333 0.96 1.674667 1.738667 1.898667 2.741334 1.152 5.290667 2.016 10.634667 3.146667 15.936 0.245333 1.152 1.408 2.090667 1.76 3.242666 0.842667 2.890667 1.344 5.856 2.197333 8.746667 1.130667 3.904 2.464 7.754667 3.754667 11.637333 0.565333 1.696 1.802667 3.424 1.674666 5.056-0.917333 11.733333 5.76 21.578667 7.733334 32.533334 1.546667 8.426667 5.653333 15.829333 8.181333 23.818666 2.666667 8.501333 4.053333 17.397333 6.261333 26.069334 2.24 8.746667 4.778667 17.429333 7.36 26.72a605.333333 605.333333 0 0 0-2.56 1.770666c6.581333 0.522667 5.696 3.925333 3.157334 8.277334l3.573333-0.704c-2.389333 8.394667 2.026667 15.189333 4.565333 22.442666 1.973333 5.6 5.685333 11.285333 5.44 16.778667-0.544 12.512 7.829333 22.026667 9.578667 33.802667 0.778667 5.461333 2.058667 11.445333 3.68 17.013333 0.746667 2.570667 3.093333 4.682667 5.152 7.584 3.498667-6.037333 8.64-6.432 13.866667-7.125333 1.866667-0.234667 3.509333-2.154667 6.389333-5.536 0.554667 1.312 1.130667 2.613333 1.664 3.893333 3.018667-5.141333 19.338667-11.232 22.186667-7.68 1.632-1.792 3.242667-3.530667 4.832-5.301333 1.365333-1.546667 2.698667-3.125333 4.053333-3.776 2.805333-0.949333 6.56-1.088 8.266667-3.029334 4.533333-5.109333 10.645333-4.757333 16.266666-6.272 6.293333-1.685333 12.778667-2.378667 18.453334-6.368 4.704-3.306667 10.293333-5.386667 15.498666-7.968 7.829333-3.914667 15.626667-7.936 23.573334-11.594666 4.405333-2.026667 9.002667-3.829333 13.696-4.981334 4.010667-0.992 8.298667-0.906667 12.48-1.322666 0.426667-0.042667 1.002667-0.042667 1.269333-0.298667 7.978667-7.872 18.069333-10.88 28.725333-12.874667 1.866667-0.352 3.370667-2.517333 5.162667-3.669333 1.066667-0.693333 2.346667-1.056 3.541333-1.568l0.704 1.589333c0.341333-0.981333 0.394667-2.56 1.034667-2.848 6.794667-2.976 13.696-5.749333 20.565333-8.597333 4.373333-1.824 8.704-3.797333 13.12-5.504 4.746667-1.824 9.6-3.424 14.410667-5.088 0.064-0.021333 0.330667 0.522667 0.501333 0.810667 3.338667-6.858667 11.168-5.653333 16.533334-9.045334 7.466667-4.725333 15.626667-9.770667 24.490666-9.706666 7.253333 0.053333 15.477333 2.634667 19.2 10.048z" /></svg>